<?xml version="1.0" encoding="UTF-8"?>
<svg version="1.1" xmlns="http://www.w3.org/2000/svg" viewBox="0 0 520 185" class="text-primary">
<path d="M0,0 L19,0 L19,101 L1,101 L0,100 Z " fill="currentColor" transform="translate(114,25)"/>
<path d="M0,0 L18,0 L19,15 L25,24 L26,32 L23,40 L19,44 L18,60 L0,60 L-2,43 L-7,36 L-8,27 L-5,19 L-2,16 L-1,2 Z M7,17 L1,20 L-3,26 L-3,33 L0,38 L6,42 L12,42 L18,38 L21,33 L20,24 L14,18 Z " fill="currentColor" transform="translate(228,25)"/>
<path d="M0,0 L73,0 L73,42 L70,59 L65,72 L57,84 L50,91 L46,89 L36,79 L42,72 L48,62 L52,52 L54,42 L55,16 L39,16 L39,28 L37,44 L32,59 L25,69 L17,77 L9,82 L1,85 L-2,85 L-2,67 L8,60 L13,54 L18,42 L20,29 L21,17 L8,17 L-1,16 L-1,1 Z " fill="currentColor" transform="translate(269,25)"/>
<path d="M0,0 L19,0 L19,100 L18,101 L1,101 L0,100 Z " fill="currentColor" transform="translate(354,25)"/>
<path d="M0,0 L59,0 L59,36 L18,36 L18,43 L49,42 L65,40 L65,56 L56,58 L43,59 L0,59 L-1,56 L-1,23 L0,22 L40,22 L41,16 L0,16 L-1,15 L-1,1 Z " fill="currentColor" transform="translate(390,25)"/>
<path d="M0,0 L19,0 L20,16 L24,21 L26,26 L26,34 L22,42 L19,43 L19,59 L18,60 L0,60 L-1,43 L-6,37 L-7,35 L-7,24 L-3,17 L0,16 Z M7,17 L1,20 L-3,28 L-2,34 L1,39 L6,42 L13,42 L19,38 L21,34 L21,26 L17,20 L11,17 Z " fill="currentColor" transform="translate(467,25)"/>
<path d="M0,0 L69,0 L69,42 L66,59 L61,71 L54,83 L46,91 L42,89 L32,80 L34,76 L41,68 L46,57 L49,47 L50,39 L50,17 L35,17 L34,37 L30,53 L24,65 L15,75 L7,81 L-3,85 L-6,85 L-6,66 L2,62 L9,54 L14,41 L15,36 L16,17 L-4,17 L-5,16 L-5,1 Z " fill="currentColor" transform="translate(33,25)"/>
<path d="M0,0 L59,0 L60,2 L60,35 L18,35 L18,42 L50,41 L65,39 L66,40 L66,55 L56,57 L42,58 L13,58 L0,57 L0,21 L41,22 L41,15 L0,15 Z " fill="currentColor" transform="translate(150,26)"/>
<path d="M0,0 L5,0 L6,1 L6,6 L11,6 L12,11 L11,12 L6,12 L6,17 L1,18 L0,17 L0,12 L-5,12 L-6,11 L-6,6 L-1,5 Z " fill="currentColor" transform="translate(234,46)"/>
<path d="M0,0 L6,0 L6,6 L12,6 L12,11 L11,12 L6,12 L6,17 L2,18 L0,17 L0,12 L-5,12 L-6,7 L-5,6 L0,6 Z " fill="currentColor" transform="translate(473,46)"/>
<path d="M0,0 L85,0 L86,20 L86,34 L85,35 L67,35 L67,16 L0,16 Z " fill="currentColor" transform="translate(161,91)"/>
<path d="M0,0 L85,0 L85,35 L66,35 L66,16 L0,16 Z " fill="currentColor" transform="translate(401,91)"/>
<path d="M0,0 L6,1 L8,3 L5,4 L1,3 L-3,4 L-4,13 L-1,18 L5,18 L6,13 L1,13 L2,10 L8,10 L8,20 L6,21 L-2,21 L-7,16 L-7,6 L-3,1 Z " fill="currentColor" transform="translate(78,141)"/>
<path d="M0,0 L7,1 L10,5 L11,13 L8,19 L6,21 L1,22 L-4,20 L-7,14 L-6,5 L-2,1 Z M1,2 L-4,7 L-4,15 L0,19 L6,18 L8,14 L8,7 L3,2 Z " fill="currentColor" transform="translate(121,141)"/>
<path d="M0,0 L8,0 L13,3 L14,4 L14,10 L11,13 L4,14 L2,21 L0,21 Z M3,3 L3,11 L9,11 L12,8 L10,3 Z " fill="currentColor" transform="translate(162,141)"/>
<path d="M0,0 L3,3 L9,18 L9,21 L6,21 L4,16 L-3,16 L-5,21 L-8,21 L-5,11 L-1,1 Z M0,5 L-2,10 L-2,13 L4,13 L1,5 Z " fill="currentColor" transform="translate(219,141)"/>
<path d="M0,0 L7,0 L12,2 L14,4 L13,11 L11,12 L13,17 L14,21 L11,21 L8,15 L8,13 L2,13 L2,21 L0,21 L-1,1 Z M2,3 L2,11 L8,11 L11,9 L10,3 Z " fill="currentColor" transform="translate(235,141)"/>
<path d="M0,0 L6,1 L8,3 L5,4 L-1,4 L-1,8 L8,12 L9,18 L4,22 L-4,21 L-5,18 L4,18 L5,14 L-4,10 L-5,3 Z " fill="currentColor" transform="translate(292,141)"/>
<path d="M0,0 L7,1 L11,5 L12,13 L9,19 L7,21 L-1,21 L-5,17 L-6,14 L-6,7 L-2,1 Z M2,2 L-3,7 L-3,15 L1,19 L6,18 L9,14 L9,8 L6,3 Z " fill="currentColor" transform="translate(313,141)"/>
<path d="M0,0 L6,1 L10,6 L10,16 L6,21 L1,22 L-5,19 L-7,15 L-7,7 L-3,1 Z M1,2 L-4,7 L-4,15 L-1,19 L4,19 L7,16 L8,9 L5,3 Z " fill="currentColor" transform="translate(410,141)"/>
<path d="M0,0 L11,0 L14,3 L14,9 L10,11 L14,18 L14,20 L11,20 L7,13 L2,12 L2,20 L0,20 Z M3,2 L2,3 L2,9 L3,10 L9,10 L12,7 L10,2 Z " fill="currentColor" transform="translate(94,142)"/>
<path d="M0,0 L2,0 L3,14 L5,17 L10,17 L11,16 L12,0 L15,0 L15,15 L13,19 L11,20 L3,20 L0,16 Z " fill="currentColor" transform="translate(139,142)"/>
<path d="M0,0 L3,0 L7,13 L11,0 L14,0 L18,14 L21,2 L22,0 L25,1 L20,19 L16,20 L12,7 L9,19 L5,20 L0,3 Z " fill="currentColor" transform="translate(182,142)"/>
<path d="M0,0 L13,0 L13,2 L3,2 L3,8 L12,8 L12,11 L3,11 L3,18 L13,18 L13,20 L1,20 L0,18 Z " fill="currentColor" transform="translate(256,142)"/>
<path d="M0,0 L2,0 L3,17 L12,18 L12,20 L0,20 Z " fill="currentColor" transform="translate(332,142)"/>
<path d="M0,0 L2,0 L2,18 L-1,21 L-6,22 L-11,20 L-13,16 L-13,1 L-10,1 L-9,17 L-8,18 L-1,18 Z " fill="currentColor" transform="translate(363,141)"/>
<path d="M0,0 L16,0 L15,2 L9,2 L9,20 L6,20 L6,2 L1,2 Z " fill="currentColor" transform="translate(371,142)"/>
<path d="M0,0 L3,0 L3,20 L0,20 Z " fill="currentColor" transform="translate(393,142)"/>
<path d="M0,0 L4,0 L12,13 L13,0 L16,0 L16,20 L12,19 L4,6 L3,20 L1,20 Z " fill="currentColor" transform="translate(427,142)"/>
</svg>
